<svg width="588" height="448" viewBox="0 0 588 448" fill="none" xmlns="http://www.w3.org/2000/svg">
<path d="M166 294.5L175 266.5L181.5 284L180.5 310.5H166V294.5Z" fill="#CCCCCC"/>
<path d="M333 208C333 208 326.5 210.5 311.5 217C308 228 296 249 296 249L297 259.5L308 245L320.5 232C320.5 232 326.003 226.5 331 223C337.5 220.5 337 221 348.5 224C348.5 224 358.406 233.5 364.5 226C371 218 362 210.5 362 210.5C362 210.5 358 205 350.5 205C343 204 333 208 333 208Z" fill="#CCCCCC"/>
<rect x="118" y="310" width="244" height="116" fill="#B87359"/>
<path d="M163 228L307 221C281 242.5 311 314 311 314L170.5 317C170.5 317 191.5 309 163 228Z" fill="url(#paint0_linear_20_14)"/>
<path d="M173.5 293C174.014 290.431 177.5 286 177.5 286C177.5 286 181 299.5 179 300.5C177 301.5 179 306.5 179 306.5C179 306.5 182.042 310.012 181.5 312.5C181.035 314.633 179.026 315.317 179 317.5C178.971 319.946 182 321.047 182 323C182 325.929 180.451 326.991 181 329.5C181.487 331.724 183.471 332.285 184 334.5C184.408 336.209 184 338.5 184 338.5C184 338.5 188.188 338.061 190 342C190.898 343.951 193.924 344.141 195 346C196.859 349.211 199.94 346.902 203 349C205.961 351.03 208 354.5 208 354.5C208 354.5 210.757 354.274 212.5 354.5C215.379 354.873 217.679 354.74 219.5 357C220.897 358.733 221 362.5 221 362.5C221 362.5 216.019 367.538 212.5 366.5C210.245 365.835 208 362.5 208 362.5L204.5 358.5C204.5 358.5 200.672 358.813 198.5 357.5C196.258 356.144 195 352.5 195 352.5C195 352.5 190.679 353.801 188.5 352.5C186.1 351.066 185.5 346 185.5 346C185.5 346 180.876 344.246 179 341.5C177.568 339.404 176.5 334.5 176.5 334.5C176.5 334.5 174.184 331.672 173.5 329.5C172.621 326.706 173.5 322 173.5 322C173.5 322 171.349 319.155 171 317C170.476 313.769 173.5 309 173.5 309C173.5 309 170.825 305.532 171 303C171.345 298 173.5 298 173.5 298C173.5 298 173.117 294.915 173.5 293Z" fill="url(#paint1_linear_20_14)" fill-opacity="0.5"/>
<path fill-rule="evenodd" clip-rule="evenodd" d="M13.5 391C0.414547 409.424 0.999997 447.5 0.999997 447.5H587.5C587.5 447.5 552.356 406.49 527.5 382.5C492.961 349.164 473.752 329.046 432.5 304.5C413.514 293.203 382 279 382 279C382 279 379.783 265.934 376 258.5C372.953 252.512 366 244.5 366 244.5C366 244.5 373.362 240.044 376 235.5C380.313 228.07 378.71 221.653 376 213.5C373.104 204.789 369.257 199.909 361.5 195C349.125 187.169 314.5 202.5 314.5 202.5L310 218C310 218 343.292 203.079 351.5 205C355.751 205.995 358.479 206.848 361.5 210C365.345 214.012 368.485 218.529 366 223.5C364.889 225.723 363.688 226.822 361.5 228C356.115 230.899 352.474 224.811 346.5 223.5C341.483 222.399 338.477 220.229 333.5 221.5C329.144 222.612 324 228 324 228L308 244.5L290 268.5L273 284.5L257.5 304.5L228.5 334L208.5 361L191.5 391C191.5 391 178.286 383.476 172.5 376C159.656 359.406 168.146 343.474 167.5 322.5C167.182 312.156 167.5 296 167.5 296L174.5 267.5C171.5 255.5 164.5 229.5 164.5 229.5C155.917 236.474 115 273 115 273L98.5 304.5C98.5 304.5 80.8786 313.977 71.5 322.5C56.0694 336.522 42 367 42 367C42 367 21.9255 379.137 13.5 391Z" fill="#E0E1DB"/>
<path d="M142.5 270C136 279 134.5 269.5 117.5 293.5C110.726 303.063 115.713 316.713 124 325C130.504 331.504 136.857 338.058 142.5 343.976M163.5 366.5C163.5 366.5 154.644 356.711 142.5 343.976M103.5 309.5C103.5 309.5 107.023 319.056 109.5 328.5C117.5 359 134.361 375.864 163.5 392.5C170.477 396.483 178.482 400.487 186.5 401C192.928 401.411 203.155 406.105 209.5 405C224.505 402.388 221.934 403.229 237 401C255.569 398.252 266.638 395.538 282.5 385.5C296.851 376.418 301.159 364.184 310.5 350C320.153 335.341 323.729 329.576 329.5 313C332.139 305.419 331.486 300.138 336 293.5M336 293.5C346.069 278.692 379.5 279 379.5 279M336 293.5L300.5 325L269.5 362.5M237 338L282.5 301.5L320 279L343 264L362.5 243M139 293.5L136.5 316L142.5 343.976" stroke="#B0B1AC" stroke-width="5" stroke-linecap="round"/>
<path d="M311 77C331.106 107.497 321 160 315.5 198C311.15 228.055 302 236 297 248C292 255.5 265.5 288 240.5 288C225.868 288 185.165 265.594 163 235.5C144.753 210.726 152.876 174.079 151.5 149.5C157.5 113.5 157.919 108.419 170 87C185.701 59.1617 200.428 49.9009 228 44C265.072 36.066 290.133 45.3484 311 77Z" fill="url(#paint2_radial_20_14)"/>
<path d="M162.5 165.5H149.5L124.5 140L143.5 84.5L174.5 81C142.5 140 162.5 165.5 162.5 165.5Z" fill="url(#paint3_linear_20_14)"/>
<path d="M220 99.5L215.5 79.5C215.5 79.5 201 87.5 203 99.5L198.5 93.5L191 79.5C191 79.5 184.5 95.5 185.5 100.5L180 83L173.5 104C173.5 104 164.798 93.0697 158.5 91.5C153.886 90.35 147 87.5 147 87.5C141.5 86.5 133.598 133.414 129 141C126.351 145.37 122.262 144.463 120 150.5C116.848 158.911 119 171 119 171C119 171 121 181.5 132.5 198.5C132.5 198.5 141 211 152 205.5C152 205.5 155.5 227 163.5 236C166.357 239.214 167.5 257.5 167.5 257.5L159 245.5C154 237 132.5 252.5 132.5 252.5C132.5 252.5 140.986 232 134 230C128.945 228.553 124 237 124 237V208C121.988 209.217 116 211 116 211C116 211 122.924 194.214 116 193C112.776 192.435 108 195.5 108 195.5L112 168C112 168 104 176 104 171L112 148L116 120C116 120 114.123 95.942 119 83C124.612 68.1099 123.643 59.4025 134 44C153.5 15 157.5 23.5238 170 14C191 -2 211 2.5 221 0.500002C238.5 -1.5 259 3.5 268.5 0.500002C272 13.5 282.146 1.71833 290 13.5C301 30 305.47 32.6888 314.5 37C324.374 41.7143 331.5 58 331.5 58L338 79.5C329.5 76 336.781 87.7479 338 96C338 96 328.131 93.2512 327 98C325.888 102.672 322.5 111.5 322.5 111.5L317.5 93.5C311.78 95.802 316.211 111.525 314.5 109C304 93.5 308.5 81.5 308.5 81.5L290 100.5C299 90 286 81.5 286 81.5L274.5 102.5L271 81.5C271 81.5 262.631 87.8145 259.5 93.5C256.484 98.9758 255.5 109 255.5 109L247.5 76L243.5 102.5L235.5 81.5L225.5 93.5L220 99.5Z" fill="url(#paint4_linear_20_14)"/>
<ellipse cx="137.678" cy="174.737" rx="16.727" ry="34.0198" transform="rotate(-20.7123 137.678 174.737)" fill="#D88E6F"/>
<path d="M254.386 222.64C258.418 222.863 262.334 220.444 265.724 222.64C274 228 283.5 227.5 283.5 227.5C283.5 227.5 253 229 228.5 227.5C225.096 227.292 218 224 218 224C226.5 224 232 225.5 243.047 221.168C246.689 219.739 250.471 222.423 254.386 222.64Z" fill="#C3684D"/>
<path d="M250.99 242.075C255.024 242.268 258.891 241.411 262.49 239.575C271.274 235.095 281.49 227.591 281.49 227.591C281.49 227.591 255.024 228.622 230.5 227.591C227.5 227.465 217.49 224.075 217.49 224.075C225.99 228.575 227.49 232.925 236.49 237.575C239.966 239.371 247.073 241.887 250.99 242.075Z" fill="#F89286"/>
<path d="M218.5 224C218.5 224 223.494 226.681 227 227C243.5 228.5 250 228.5 258 228.5C269.543 228.5 282.5 227.5 282.5 227.5" stroke="#AA3917"/>
<path d="M203 133C210.918 134.185 220 133 224.5 134.5C224.5 134.5 205.013 137.562 201.346 139.729C196.179 135.396 189.1 128.4 191.5 130C193.9 131.6 195.082 131.815 203 133Z" fill="#141212"/>
<path d="M214 135C208.3 135.698 201 139.5 201 139.5C201 139.5 208.016 144.253 214 145.5C218.779 146.496 222.5 146.5 227.5 146.5C230.046 146.5 234 145.5 234 145.5C234 145.5 230.302 136.507 226 135C222.499 133.774 217.682 134.549 214 135Z" fill="url(#paint5_linear_20_14)"/>
<mask id="mask0_20_14" style="mask-type:alpha" maskUnits="userSpaceOnUse" x="216" y="132" width="15" height="15">
<circle cx="223.5" cy="139.5" r="7.5" fill="#8E8986"/>
</mask>
<g mask="url(#mask0_20_14)">
<path d="M214 135C208.3 135.698 201 139.5 201 139.5C201 139.5 208.016 144.253 214 145.5C218.779 146.496 222.5 146.5 227.5 146.5C230.046 146.5 234 145.5 234 145.5C234 145.5 230.302 136.507 226 135C222.499 133.774 217.682 134.549 214 135Z" fill="#7A785F"/>
</g>
<path d="M218 134.5C218 134.5 220.312 134 221.5 134C222.688 134 224.5 134.5 224.5 134.5C224.5 134.5 227 135 228 136C230.5 138.5 230 138.5 230 138.5C230 138.5 226.455 138 223.5 138C220.545 138 216 138.5 216 138.5C216 138.5 216.5 136 218 134.5Z" fill="black"/>
<circle cx="224.5" cy="139.5" r="2.5" fill="#141212"/>
<path d="M292.5 143C287.939 143 281.333 146.833 278.5 149.5C278.5 149.5 282.496 152.363 286 153.5C292 155.446 296 155.856 301.5 153.5C307 151.144 306 149.5 306 149.5C303.5 145.5 300 143 292.5 143Z" fill="url(#paint6_linear_20_14)"/>
<path d="M305 144C301.107 143.146 294.5 143 294.5 143C294.5 143 298.8 143.379 302.6 146.435C306.4 149.491 305.978 150 305.978 150L314.5 143.5C314.5 143.5 309.644 145.018 305 144Z" fill="#141212"/>
<mask id="mask1_20_14" style="mask-type:alpha" maskUnits="userSpaceOnUse" x="278" y="143" width="29" height="13">
<path d="M292.5 143C287.939 143 281.333 146.833 278.5 149.5C278.5 149.5 282.496 152.363 286 153.5C292 155.446 296 155.856 301.5 153.5C307 151.144 306 149.5 306 149.5C303.5 145.5 300 143 292.5 143Z" fill="white"/>
</mask>
<g mask="url(#mask1_20_14)">
<circle cx="298" cy="149" r="7" fill="#7A785F"/>
</g>
<circle cx="299.5" cy="148.5" r="2.5" fill="#141212"/>
<path d="M294.5 143C294.5 143 297.809 142.984 299.5 143.5C301.423 144.086 303.5 146 303.5 146L305 148C305 148 300.26 146.907 297.5 147C294.706 147.094 291 148 291 148C291 148 291.5 144.5 294.5 143Z" fill="#141212"/>
<path d="M276 148C276 148 281.836 141.477 287 139.5C292.106 137.546 297.115 137.517 302 139.5C304.609 140.559 306.5 142.5 306.5 142.5M235 141.5C235 141.5 233.5 136.074 228 132.5C222.5 128.926 212.721 128.919 209.5 129.5C206.279 130.081 201.5 132 201.5 132" stroke="#B3724C"/>
<ellipse cx="249.5" cy="196" rx="4.5" ry="3" fill="#141212"/>
<ellipse cx="271" cy="197.5" rx="3" ry="2.5" fill="#141212"/>
<path d="M254 199C254 199 257.186 203.948 260.5 204.5C263.814 205.052 267.5 200.5 267.5 200.5" stroke="#DF72CE"/>
<path d="M239.5 184.5C239.5 184.5 232.991 187.982 234 192.5C234.725 195.745 236.316 198.042 239.5 199C241.183 199.506 244 199 244 199" stroke="#E7A376"/>
<path d="M266 167.5C264 161 262.5 127 262.5 127H256.5C256.5 127 257.844 152.044 258 167.5C258.029 170.429 258.615 172.136 258 175C257.467 177.482 255.57 178.463 255.5 181C255.425 183.719 258 187.5 258 187.5C258 187.5 264.272 191.034 268 188.5C270.745 186.634 272 182 270.5 178.5C269 175 268 174 266 167.5Z" fill="url(#paint7_linear_20_14)"/>
<circle cx="245" cy="183" r="2" fill="url(#paint8_linear_20_14)"/>
<path d="M285 121C299.5 118.5 303 119 313 123C319.159 125.463 322.5 134 322.5 134C322.5 134 313.203 128.618 307 127.5C296.431 125.595 279.5 129.5 279.5 129.5C279.5 129.5 281.104 121.672 285 121Z" fill="#A37858"/>
<path d="M200.5 109.775C221 107.775 228 109.775 239.5 114.275C242.897 115.604 242 123.275 242 123.275C242 123.275 220.233 117.91 210 117C195.802 115.737 178 124.775 178 124.775C178 124.775 189.989 110.801 200.5 109.775Z" fill="#A37858"/>
<path d="M136.5 200H139L138.5 233H140.5V234.5H135V233H136.5V200Z" fill="url(#paint9_linear_20_14)"/>
<rect x="143" y="205" width="3" height="16" fill="url(#paint10_linear_20_14)"/>
<rect x="149" y="205" width="2" height="28" fill="url(#paint11_linear_20_14)"/>
<defs>
<linearGradient id="paint0_linear_20_14" x1="225" y1="173.5" x2="224" y2="317" gradientUnits="userSpaceOnUse">
<stop stop-color="#F1A781"/>
<stop offset="1" stop-color="#B87359"/>
</linearGradient>
<linearGradient id="paint1_linear_20_14" x1="196" y1="287" x2="205" y2="403" gradientUnits="userSpaceOnUse">
<stop stop-color="#A3A3A3"/>
<stop offset="1" stop-color="#ECD0D0"/>
</linearGradient>
<radialGradient id="paint2_radial_20_14" cx="0" cy="0" r="1" gradientUnits="userSpaceOnUse" gradientTransform="translate(236.993 165.964) rotate(90) scale(124.647 86.1378)">
<stop stop-color="#F5A487"/>
<stop offset="1" stop-color="#F1A780"/>
</radialGradient>
<linearGradient id="paint3_linear_20_14" x1="159" y1="83.5" x2="158.5" y2="169" gradientUnits="userSpaceOnUse">
<stop stop-color="#502E20"/>
<stop offset="1" stop-color="#F1A680"/>
</linearGradient>
<linearGradient id="paint4_linear_20_14" x1="226.5" y1="66.4999" x2="214.5" y2="198" gradientUnits="userSpaceOnUse">
<stop stop-color="#EF5929"/>
<stop offset="1" stop-color="#F86060"/>
</linearGradient>
<linearGradient id="paint5_linear_20_14" x1="217.5" y1="134.34" x2="217.5" y2="146.5" gradientUnits="userSpaceOnUse">
<stop stop-color="#868686"/>
<stop offset="1" stop-color="white"/>
</linearGradient>
<linearGradient id="paint6_linear_20_14" x1="292.286" y1="143" x2="292.286" y2="155.117" gradientUnits="userSpaceOnUse">
<stop stop-color="#A8A8A8"/>
<stop offset="1" stop-color="white"/>
</linearGradient>
<linearGradient id="paint7_linear_20_14" x1="263.32" y1="127" x2="263" y2="233.5" gradientUnits="userSpaceOnUse">
<stop stop-color="#F3A584"/>
<stop offset="1" stop-color="#FFCCB5"/>
</linearGradient>
<linearGradient id="paint8_linear_20_14" x1="245" y1="181" x2="245" y2="185" gradientUnits="userSpaceOnUse">
<stop stop-color="#C4C4C4"/>
<stop offset="1" stop-color="white"/>
</linearGradient>
<linearGradient id="paint9_linear_20_14" x1="137.75" y1="200" x2="137.75" y2="234.5" gradientUnits="userSpaceOnUse">
<stop stop-color="#C4C4C4"/>
<stop offset="1" stop-color="white"/>
</linearGradient>
<linearGradient id="paint10_linear_20_14" x1="144.5" y1="205" x2="144" y2="234" gradientUnits="userSpaceOnUse">
<stop stop-color="#C4C4C4"/>
<stop offset="0.90625" stop-color="white"/>
</linearGradient>
<linearGradient id="paint11_linear_20_14" x1="150" y1="205" x2="150" y2="245" gradientUnits="userSpaceOnUse">
<stop stop-color="#C4C4C4"/>
<stop offset="1" stop-color="white"/>
</linearGradient>
</defs>
</svg>
